<svg id="impact_logo_white" xmlns="http://www.w3.org/2000/svg" width="226" height="213" viewBox="0 0 226 213">
  <path id="Path_31" data-name="Path 31" d="M7.215-132.09v10.375H21.151V-132.09Zm0,13.394V-76.81H21.151V-118.7ZM47.32-104.45v27.64H61.256v-27.64a7.063,7.063,0,0,1,.774-3.794,2.927,2.927,0,0,1,2.632-1.161,2.927,2.927,0,0,1,2.632,1.161,7.063,7.063,0,0,1,.774,3.794v27.64H82.006V-108.4a15.438,15.438,0,0,0-.852-5.574,8.982,8.982,0,0,0-2.323-3.484,8.076,8.076,0,0,0-3.445-1.819,17.367,17.367,0,0,0-4.3-.5,13.254,13.254,0,0,0-6.078,1.432,9.934,9.934,0,0,0-4.452,4.994,10.458,10.458,0,0,0-3.6-4.839q-2.284-1.587-6.62-1.587-7.433,0-10.142,6.194h-.155v-5.11H26.571V-76.81H40.507v-27.64a7.063,7.063,0,0,1,.774-3.794,2.927,2.927,0,0,1,2.632-1.161,2.927,2.927,0,0,1,2.632,1.161A7.063,7.063,0,0,1,47.32-104.45Zm54.041,6.658q0-3.407.155-5.613a15.95,15.95,0,0,1,.581-3.561,3.506,3.506,0,0,1,1.2-1.9,3.294,3.294,0,0,1,1.936-.542,3.437,3.437,0,0,1,2.013.542,3.506,3.506,0,0,1,1.2,1.9,15.953,15.953,0,0,1,.581,3.561q.155,2.207.155,5.613t-.155,5.652a16.086,16.086,0,0,1-.581,3.6,3.506,3.506,0,0,1-1.2,1.9,3.437,3.437,0,0,1-2.013.542,3.294,3.294,0,0,1-1.936-.542,3.506,3.506,0,0,1-1.2-1.9,16.083,16.083,0,0,1-.581-3.6Q101.361-94.385,101.361-97.792ZM87.425-118.7v55.28h13.936V-81.533h.155a7.084,7.084,0,0,0,3.445,4.413,11.856,11.856,0,0,0,5.3,1.161,13.871,13.871,0,0,0,5.3-.968,9.024,9.024,0,0,0,4.026-3.407,19.068,19.068,0,0,0,2.594-6.465,45.739,45.739,0,0,0,.929-10.065q0-11.613-2.787-17.265t-9.755-5.652q-7.123,0-9.523,6.813H100.9V-118.7Z" transform="translate(50.284 185.96)" fill="#fff"/>
  <path id="Path_30" data-name="Path 30" d="M19.468-83.588a2.943,2.943,0,0,1-2.478-1.239,5.421,5.421,0,0,1-.929-3.329,7.772,7.772,0,0,1,.619-3.368,4.516,4.516,0,0,1,2.245-2.052,11.01,11.01,0,0,1,2.826-.89,2.726,2.726,0,0,0,1.9-1.045H23.8v5.032A10.463,10.463,0,0,1,22.8-85.292,3.561,3.561,0,0,1,19.468-83.588ZM24.656-75.3H38.127a10.65,10.65,0,0,1-1.084-3.871,51.029,51.029,0,0,1-.232-5.187V-104.8a16.034,16.034,0,0,0-1.2-6.7,9.876,9.876,0,0,0-3.407-4.1,13.748,13.748,0,0,0-5.265-2.09,35.962,35.962,0,0,0-6.7-.581,29.3,29.3,0,0,0-5.187.5,14.49,14.49,0,0,0-5.187,2.013A12.312,12.312,0,0,0,5.842-111.5a14.3,14.3,0,0,0-1.626,7.316H16.294q.077-3.329,1.006-4.452a3.6,3.6,0,0,1,2.942-1.123q3.561,0,3.561,3.871a4.342,4.342,0,0,1-.929,2.981,6.088,6.088,0,0,1-3.174,1.587L14.2-100a25.461,25.461,0,0,0-5.574,1.9A10.83,10.83,0,0,0,5.068-95.4a9.746,9.746,0,0,0-1.9,3.755,19.9,19.9,0,0,0-.581,5.11,18.6,18.6,0,0,0,.619,4.955A9.9,9.9,0,0,0,5.222-77.7a8.51,8.51,0,0,0,3.6,2.439,15.642,15.642,0,0,0,5.381.813,11.706,11.706,0,0,0,5.768-1.394,8.241,8.241,0,0,0,3.678-4.181H23.8q.155,1.316.31,2.478A10.965,10.965,0,0,0,24.656-75.3Zm39.176-25.472H76.374a32.155,32.155,0,0,0-.736-7.162,13.525,13.525,0,0,0-2.555-5.5A12,12,0,0,0,68.206-117a20.1,20.1,0,0,0-7.7-1.277,33.153,33.153,0,0,0-7.355.774,12.412,12.412,0,0,0-5.923,3.174,16.378,16.378,0,0,0-3.987,6.891,39.363,39.363,0,0,0-1.471,11.923,37.181,37.181,0,0,0,1.316,10.955A15.126,15.126,0,0,0,46.76-78.13a11.354,11.354,0,0,0,5.691,2.981,35.969,35.969,0,0,0,7.355.7q8.9,0,12.852-4.181a13.054,13.054,0,0,0,2.865-5.729,36.038,36.038,0,0,0,.852-8.439H63.832v2.71q0,3.949-1.045,5.42A3.438,3.438,0,0,1,59.806-83.2a3.307,3.307,0,0,1-1.974-.581,3.856,3.856,0,0,1-1.277-2.052,18.439,18.439,0,0,1-.658-3.987q-.194-2.516-.194-6.387T55.9-102.6a19.152,19.152,0,0,1,.658-4.026,3.88,3.88,0,0,1,1.277-2.09,3.308,3.308,0,0,1,1.974-.581,3.126,3.126,0,0,1,3.1,1.781,9.581,9.581,0,0,1,.7,2.594A29.718,29.718,0,0,1,63.832-100.776ZM77.613-117.19v9.368h4.645v22.3a19.539,19.539,0,0,0,.658,5.613,6.159,6.159,0,0,0,2.09,3.213,7.461,7.461,0,0,0,3.678,1.355,46.151,46.151,0,0,0,5.42.271q1.781,0,3.716-.116t3.871-.116v-9.291H99.524a3.663,3.663,0,0,1-2.516-.735,3.272,3.272,0,0,1-.813-2.516v-19.975h5.5v-9.368h-5.5V-129.5H82.258v12.31Zm27.795,26.556V-75.3h13.007v-15.33Z" transform="translate(55.879 233.268)" fill="#fff"/>
  <g id="Path_36" data-name="Path 36" fill="none">
    <path d="M0,0H226V213H0Z" stroke="none"/>
    <path d="M 3 3 L 3 210 L 223 210 L 223 3 L 3 3 M 0 0 L 226 0 L 226 213 L 0 213 L 0 0 Z" stroke="none" fill="#fff"/>
  </g>
</svg>
